<svg width="78" height="77" viewBox="0 0 78 77" fill="none" xmlns="http://www.w3.org/2000/svg">
<g clip-path="url(#clip0_321_2673)">
<path d="M14.7462 25.6597C16.2246 27.0861 19.2123 26.0851 21.2509 26.3469C24.6294 26.9033 26.849 27.0496 29.9233 29.0959C30.7549 35.4082 36.0084 42.8389 37.8834 49.0279C40.0607 49.5438 39.0096 48.0692 39.3176 47.6554C39.4023 47.5399 39.8893 47.7632 40.0395 47.6554C43.3082 45.301 45.1024 41.6723 48.3288 38.7C50.6119 36.5959 54.3176 34.7921 56.3216 32.5552C57.4247 31.3251 58.7029 27.9736 58.9416 27.8331C60.3584 26.9937 65.0306 29.1633 64.609 26.3469C65.2404 26.5163 66.5802 25.9061 66.8132 26.7165C66.8247 32.8671 64.07 38.2707 59.5615 42.502C63.0304 44.9699 65.8468 47.3781 67.4426 51.3515C62.7378 55.4172 55.6902 58.7398 49.1315 57.9063C45.7646 57.4789 40.9943 53.8887 38.9499 53.8906C37.3463 53.8906 35.0844 56.064 33.3172 56.732C25.2127 59.7986 16.5557 56.7859 10.4648 51.3534C12.1416 48.0173 14.5036 45.0315 17.6357 42.8466C17.8089 42.9678 19.0294 42.7503 19.7224 43.2393C23.4975 45.9055 25.9442 47.357 30.4643 48.8604C31.1746 49.0972 36.6726 51.5112 35.6966 49.386C34.8495 47.5399 28.4757 43.6994 26.5602 41.9187C23.7785 39.3314 20.8813 35.3812 18.1054 32.7766C16.188 30.9767 11.7392 29.3019 11.8547 26.3488C12.207 26.1525 14.1995 25.7155 14.7462 25.6616V25.6597Z" fill="#45AE54"/>
<path d="M48.7121 29.0958C44.1747 33.2963 41.9994 42.0399 40.0397 47.6553C39.8895 47.7631 39.4025 47.5398 39.3178 47.6553L37.8721 39.751V26.6895C37.8721 26.4469 38.5651 25.5441 38.6228 24.6528C38.9135 20.1905 39.0618 15.682 39.3178 11.2217C44.0861 11.5874 50.4831 24.6355 48.7121 29.0939V29.0958Z" fill="#048C38"/>
<path d="M39.3177 11.2238C39.0617 15.6841 38.9134 20.1926 38.6227 24.6549C38.565 25.5462 37.872 26.4471 37.872 26.6916V39.7531L39.3177 47.6574C39.0097 48.0713 40.0608 49.5459 37.8835 49.03C36.0085 42.8409 30.755 35.4083 29.9234 29.0979C29.704 27.4347 29.7386 24.2853 29.9869 22.6259C30.4528 19.5304 35.7275 10.9504 39.3177 11.2257V11.2238Z" fill="#09A23B"/>
<path d="M11.8547 26.3472C11.7392 29.3002 16.188 30.975 18.1053 32.7749C20.8813 35.3815 23.7785 39.3297 26.5602 41.917C28.4737 43.6977 34.8495 47.5382 35.6965 49.3843C36.6706 51.5096 31.1726 49.0956 30.4642 48.8588C25.9442 47.3534 23.4974 45.9038 19.7224 43.2376C19.0294 42.7486 17.8089 42.9662 17.6356 42.8449C17.3296 42.6293 14.0262 37.4413 13.6219 36.6963C12.6363 34.879 9.60237 27.6042 11.8547 26.3472Z" fill="#09A23B"/>
<path d="M64.611 26.3472C65.0326 29.1655 60.3605 26.9959 58.9436 27.8333C58.7049 27.9739 57.4267 31.3254 56.3236 32.5555C54.3177 34.7924 50.6139 36.5962 48.3308 38.7003C45.1044 41.6726 43.3083 45.3013 40.0415 47.6556C41.9993 42.0402 44.1765 33.2966 48.7139 29.0962C52.6044 25.4925 59.7599 25.0516 64.6129 26.3472H64.611Z" fill="#09A23B"/>
<path d="M21.2509 26.347C19.2122 26.0852 16.2265 27.0862 14.7461 25.6598C17.5663 25.3845 18.9523 25.9678 21.2509 26.347Z" fill="#9164A6"/>
<path d="M57.0417 29.8469C57.1399 30.0048 59.2132 30.5919 60.1892 31.8124C62.3299 34.4921 62.4723 38.2787 60.1931 40.9699C59.1651 42.1846 57.1303 42.7621 57.0225 42.9123C56.3025 43.9191 59.7541 48.0599 56.651 52.5048C53.2571 57.3637 49.9325 54.3798 46.5483 55.2115C46.0862 55.325 45.3239 57.7545 44.8099 58.434C43.3527 60.3533 40.7981 61.3043 38.4033 61.1791C33.4309 60.9193 32.659 55.7659 31.2941 55.3077C29.9235 54.8496 28.7396 55.7004 27.6153 55.6619C23.8191 55.5349 19.9883 52.4933 19.8959 48.52C19.8612 47.0454 21.2261 44.4581 20.8276 43.2126C20.4349 41.9863 15.9014 40.6003 16.0669 36.165C16.2325 31.7296 20.3656 31.0289 21.1837 29.3888C21.5707 28.613 20.3425 26.507 21.7343 24.0467C24.054 19.9483 28.1544 19.6769 32.1777 21.3112C33.404 16.0982 38.5574 13.5205 43.2314 16.9991C44.5424 17.977 45.9553 21.1129 46.5136 21.2477C48.1576 21.6423 50.2752 18.4621 54.5315 21.8541C58.3181 24.8707 56.1177 28.3646 57.0437 29.845L57.0417 29.8469ZM44.9254 44.8181C51.2223 39.1719 46.7003 29.4427 38.3629 29.9066C32.5685 30.2281 29.5577 35.3584 30.6954 40.8486C31.4 44.2521 35.5966 47.1089 38.9886 47.1108C40.5151 47.1108 43.7897 45.8384 44.9274 44.8181H44.9254Z" fill="#FBF3A5"/>
<path d="M44.9256 44.818C43.7879 45.8383 40.5153 47.1107 38.9868 47.1107C35.5968 47.1107 31.4002 44.252 30.6937 40.8485C29.556 35.3602 32.5668 30.2299 38.3612 29.9065C46.6986 29.4445 51.2206 39.1737 44.9237 44.818H44.9256Z" fill="#F5BC21"/>
</g>
<defs>
<clipPath id="clip0_321_2673">
<rect x="0.741211" y="0.285645" width="76.4286" height="76.4286" rx="25" fill="white"/>
</clipPath>
</defs>
</svg>
