<svg width="77" height="77" viewBox="0 0 77 77" fill="none" xmlns="http://www.w3.org/2000/svg">
<g clip-path="url(#clip0_321_2645)">
<path d="M35.401 33.3986C31.1986 33.1964 27.0886 31.999 24.2125 28.7765C20.1237 24.1929 23.5754 23.4556 28.1031 22.6914C24.6072 14.9315 26.9789 11.7494 34.423 16.8585C34.2344 15.1202 36.9083 10.0284 38.5638 10.0322C40.4215 10.038 42.8432 15.0836 42.7027 16.8585C45.1475 15.305 47.4229 14.0017 50.4838 14.4233C50.5916 17.3763 50.6859 20.1176 49.0227 22.6914C53.2443 23.3613 56.977 24.0178 53.1615 28.5378C50.4568 31.743 46.2756 33.1348 42.2118 33.3986C40.7488 33.4948 37.0373 33.4775 35.401 33.3986Z" fill="#45AE54"/>
<path d="M55.8315 40.6943C56.6188 40.7886 58.234 41.2333 57.7777 42.1535C57.7565 42.6386 57.7873 43.1276 57.7777 43.6127C57.7469 45.2278 57.7681 46.8622 57.7777 48.4773C57.7777 48.639 57.7777 48.8007 57.7777 48.9643H57.2907C47.4074 48.897 37.4992 49.0548 27.6159 48.9643C27.2925 48.9605 26.9672 48.9682 26.6438 48.9643C24.867 48.9432 23.0651 49.0298 21.2921 48.9643C20.5394 48.9355 19.3055 49.2955 18.8338 48.6467C18.4392 47.9672 18.7568 43.4414 18.8358 42.3556C18.882 41.7184 19.3363 41.2718 19.344 41.1813H24.6956C24.6514 42.1574 24.5281 48.3618 24.944 48.4812C26.072 48.8046 25.6447 47.4359 25.6678 46.7794C25.7371 44.8678 26.0451 42.9081 26.1548 41.1813C34.6693 41.1409 43.1973 41.2256 51.7176 41.2044C52.7976 41.2025 55.1596 40.6154 55.8296 40.6943H55.8315Z" fill="#36AA6B"/>
<path d="M27.6162 58.2085C37.3877 58.2085 47.5751 57.835 57.2909 58.2085V65.5063C47.219 66.03 35.8381 65.6642 25.6699 65.5063L26.6421 58.2085H27.6142H27.6162Z" fill="#89569E"/>
<path d="M34.9141 34.8577C37.2742 34.927 39.8615 34.8674 42.212 34.8577C42.5354 34.8577 42.8607 34.8577 43.1841 34.8577L43.4267 35.3351L43.6693 34.8577C44.1563 34.8577 44.6414 34.8616 45.1285 34.8577L45.8542 35.3409L46.1025 34.8577C46.913 34.8481 47.7254 34.8712 48.5358 34.8577L48.7784 35.3351L49.0209 34.8577C49.9931 34.8481 50.9691 34.8481 51.9393 34.8577L52.665 35.3409L52.9134 34.8577C53.4004 34.8654 53.8875 34.8462 54.3726 34.8577L54.6151 35.3351L54.8577 34.8577C55.1811 34.8693 55.5084 34.8366 55.8298 34.8577V40.6964C55.1599 40.6156 52.7979 41.2027 51.7179 41.2066C43.1976 41.2277 34.6696 41.143 26.1551 41.1835C26.2879 39.0967 26.0608 36.9483 26.1532 34.8558C29.0639 34.9232 32.0034 34.773 34.9122 34.8577H34.9141Z" fill="#89569E"/>
<path d="M26.6437 48.9644V58.2085L25.6715 65.5064C25.3481 65.5006 25.0228 65.5102 24.6994 65.5064C24.3856 64.3109 24.9381 59.3192 24.4953 58.6609C23.9986 57.9216 22.1506 58.2528 21.2939 58.2085V48.9644C23.0669 49.0298 24.8688 48.9432 26.6456 48.9644H26.6437Z" fill="#F9B71B"/>
<path d="M21.2922 58.2089C22.1489 58.2532 23.995 57.9221 24.4936 58.6613C24.9363 59.3197 24.3858 64.3094 24.6976 65.5068C23.1018 65.4875 21.4058 65.6242 19.833 65.5068V58.2089C20.3085 58.1819 20.8167 58.1839 21.2922 58.2089Z" fill="#89569E"/>
<path d="M58.2649 48.4794C61.8667 48.7355 60.3728 49.39 60.3247 51.6519C60.2997 52.8705 60.6943 55.4193 60.5615 56.4472C60.4402 57.379 59.3795 58.0701 59.239 58.6938C58.9271 58.5975 58.5363 58.2414 58.2668 58.2067C58.2707 55.1305 57.799 51.7636 57.7798 48.9626C57.7798 48.8009 57.7798 48.6392 57.7798 48.4756H58.2668L58.2649 48.4794Z" fill="#F9B71B"/>
<path d="M24.6977 34.8579L25.1847 35.345C25.3849 36.396 25.2694 38.8139 25.204 40.0074C25.1693 40.6331 24.7015 41.1182 24.6977 41.1836H21.7793C22.147 39.1777 20.811 35.9013 22.7514 34.8598C23.3598 34.8772 24.176 34.754 24.6977 34.8598V34.8579Z" fill="#89569E"/>
<path d="M19.8331 58.2089V65.5068C19.2401 65.4625 18.3777 65.6723 17.8656 65.295C16.8454 64.5404 17.6539 59.6662 17.3979 58.207C18.2045 58.1723 19.0265 58.2551 19.8331 58.2089Z" fill="#9C74AF"/>
<path d="M55.8315 34.8575C56.6362 34.9095 57.4621 34.8152 58.2667 34.8556C58.1686 36.8827 58.3919 38.9502 58.2841 40.9792C58.2513 41.6087 57.7797 42.0919 57.7778 42.1573C58.234 41.2372 56.6189 40.7925 55.8315 40.6981V34.8594V34.8575Z" fill="#9C74AF"/>
<path d="M42.212 33.3984V34.8576C39.8634 34.8673 37.2742 34.9269 34.9141 34.8576L35.4011 33.3984C37.0374 33.4774 40.7489 33.4947 42.212 33.3984Z" fill="#F9B71B"/>
<path d="M22.7516 34.8578C20.8092 35.8992 22.1452 39.1757 21.7794 41.1816H19.3461C19.3885 40.7022 19.2999 40.1998 19.3461 39.7224C19.7158 40.0111 21.1576 40.5925 21.2943 39.9611C21.5407 38.8253 20.4492 39.4856 20.3125 38.9235C19.7543 36.6384 21.2577 36.7039 21.302 36.5653C21.9219 34.646 19.5637 35.3294 19.3461 35.8318C18.8553 34.3322 21.3771 34.8193 22.7516 34.8597V34.8578Z" fill="#9C74AF"/>
<path d="M58.2646 58.2087C58.2627 60.6362 58.2646 63.0791 58.2646 65.5065C57.9432 65.5258 57.614 65.4892 57.2925 65.5065V58.2087C57.612 58.2202 57.9547 58.1702 58.2646 58.2087Z" fill="#9C74AF"/>
<path d="M59.2372 58.6955C58.9542 59.9449 59.5567 65.0829 59.2372 65.5102C58.9157 65.5353 58.5865 65.4871 58.265 65.5064C58.265 63.0789 58.2631 60.636 58.265 58.2085C58.5345 58.2431 58.9253 58.5974 59.2372 58.6955Z" fill="#89569E"/>
<path d="M19.3462 35.8301C19.5638 35.3277 21.922 34.6443 21.3021 36.5635C21.2578 36.7021 19.7544 36.6367 20.3126 38.9217C20.4493 39.4839 21.5408 38.8236 21.2944 39.9593C21.1577 40.5927 19.7139 40.0094 19.3462 39.7206C19.4252 38.9179 19.2692 36.0072 19.3462 35.8282V35.8301Z" fill="#89569E"/>
<path d="M58.2648 48.4794H57.7778C57.7682 46.8642 57.747 45.2299 57.7778 43.6147C58.8154 44.7698 58.055 46.9509 58.2648 48.4794Z" fill="#9C74AF"/>
<path d="M46.1025 34.8576L45.8542 35.3407L45.1284 34.8576C45.4518 34.8537 45.7772 34.8614 46.1006 34.8576H46.1025Z" fill="#9C74AF"/>
<path d="M52.913 34.8576L52.6647 35.3407L51.939 34.8576C52.2624 34.8614 52.5877 34.8537 52.9111 34.8576H52.913Z" fill="#9C74AF"/>
<path d="M25.1848 35.343L24.6978 34.856C25.0635 34.931 25.1136 34.9715 25.1848 35.343Z" fill="#9C74AF"/>
<path d="M43.1841 34.8579C43.3458 34.8579 43.5075 34.8579 43.6711 34.8579L43.4286 35.3353L43.186 34.8579H43.1841Z" fill="#9C74AF"/>
<path d="M48.5356 34.8578C48.6973 34.8559 48.8591 34.8578 49.0227 34.8578L48.7801 35.3352L48.5376 34.8578H48.5356Z" fill="#9C74AF"/>
<path d="M54.3726 34.8579C54.5343 34.8617 54.6979 34.8521 54.8596 34.8579L54.617 35.3353L54.3745 34.8579H54.3726Z" fill="#9C74AF"/>
<path d="M57.2929 48.9645V58.2087C47.5771 57.8352 37.3878 58.2087 27.6182 58.2087V48.9645C37.5014 49.055 47.4097 48.8972 57.2929 48.9645Z" fill="#F9B71B"/>
<path d="M27.6162 48.9645V58.2086H26.644V48.9645C26.9675 48.9683 27.2928 48.9606 27.6162 48.9645Z" fill="#6D551C"/>
<path d="M58.2646 58.2085C57.9547 58.17 57.6101 58.22 57.2925 58.2085V48.9644H57.7795C57.7988 51.7634 58.2685 55.1303 58.2666 58.2085H58.2646Z" fill="#6D551C"/>
</g>
<defs>
<clipPath id="clip0_321_2645">
<rect width="76.4286" height="76.4286" fill="white" transform="translate(0.0356445 0.285645)"/>
</clipPath>
</defs>
</svg>
